# ProBuilder 4.5.2
# https://unity3d.com/unity/features/worldbuilding/probuilder
# 06/10/2021 21:25:12

mtllib ./Pipe.mtl
o Pipe

g Pipe
v -5 1.907349E-06 -20.00001
v -4.890738 -1.039557 -20.00001
v -5 -1.907349E-06 20
v -4.890738 -1.03956 20
v -4.567727 -2.033682 -20.00001
v -4.567727 -2.033686 20
v -4.045085 -2.938925 -20.00001
v -4.045085 -2.938929 20
v -3.345653 -3.715723 -20.00001
v -3.345653 -3.715727 20
v -2.5 -4.330126 -20.00001
v -2.5 -4.33013 20
v -1.545085 -4.755281 -20.00001
v -1.545085 -4.755285 20
v -0.5226421 -4.972609 -20.00001
v -0.5226421 -4.972612 20
v 0.5226426 -4.972609 -20.00001
v 0.5226426 -4.972612 20
v 1.545085 -4.755281 -20.00001
v 1.545085 -4.755285 20
v 2.5 -4.330126 -20.00001
v 2.5 -4.33013 20
v 3.345654 -3.715723 -20.00001
v 3.345654 -3.715727 20
v 4.045086 -2.938925 -20.00001
v 4.045086 -2.938929 20
v 4.567728 -2.033682 -20.00001
v 4.567728 -2.033686 20
v 4.890738 -1.039557 -20.00001
v 4.890738 -1.03956 20
v 5 1.907349E-06 -20.00001
v 5 -1.907349E-06 20
v 4.890738 1.03956 -20.00001
v 4.890738 1.039557 20
v 4.567728 2.033684 -20.00001
v 4.567728 2.03368 20
v 4.045086 2.938927 -20.00001
v 4.045086 2.938923 20
v 3.345654 3.715725 -20.00001
v 3.345654 3.715721 20
v 2.5 4.33013 -20
v 2.5 4.330126 20
v 1.545085 4.755283 -20.00001
v 1.545085 4.75528 20
v 0.5226417 4.97261 -20.00001
v 0.5226417 4.972608 20
v -0.5226417 4.97261 -20.00001
v -0.5226417 4.972608 20
v -1.545086 4.755283 -20.00001
v -1.545086 4.75528 20
v -2.5 4.33013 -20
v -2.5 4.330126 20
v -3.345654 3.715725 -20.00001
v -3.345654 3.715721 20
v -4.045085 2.938929 -20.00001
v -4.045085 2.938925 20
v -4.567728 2.033684 -20.00001
v -4.567728 2.03368 20
v -4.890738 1.03956 -20.00001
v -4.890738 1.039557 20

vt -20 -0.5226433
vt -20 0.5226414
vt 20 -0.5226451
vt 20 0.5226396

vn 1 0 0
vn 0.9781476 0.2079117 1.9828E-08
vn 0.9135454 0.4067366 3.878942E-08
vn 0.8090171 0.5877852 5.605556E-08
vn 0.6691306 0.7431448 7.087181E-08
vn 0.5000001 0.8660254 8.259062E-08
vn 0.3090172 0.9510565 9.069981E-08
vn 0.1045286 0.9945219 9.484499E-08
vn -0.1045286 0.9945219 9.484499E-08
vn -0.3090172 0.9510565 9.069981E-08
vn -0.4999999 0.8660255 8.259062E-08
vn -0.6691304 0.743145 7.087183E-08
vn -0.809017 0.5877852 5.605557E-08
vn -0.9135457 0.406736 3.878937E-08
vn -0.9781477 0.2079113 1.982796E-08
vn -1 0 0
vn -0.9781476 -0.2079115 -1.982799E-08
vn -0.9135456 -0.4067363 -3.878939E-08
vn -0.809017 -0.5877852 -5.605557E-08
vn -0.669131 -0.7431445 -7.087178E-08
vn -0.4999999 -0.8660254 -8.259062E-08
vn -0.5000001 -0.8660254 -7.711545E-08
vn -0.3090165 -0.9510567 -7.350002E-08
vn -0.1045285 -0.9945219 -7.113374E-08
vn 0.1045284 -0.9945219 -7.113374E-08
vn 0.3090164 -0.9510567 -6.802487E-08
vn 0.5000001 -0.8660254 -7.711546E-08
vn 0.6691307 -0.7431447 -7.087181E-08
vn 0.8090171 -0.5877852 -5.605556E-08
vn 0.9135455 -0.4067364 -3.878941E-08
vn 0.9781476 -0.2079118 -1.982801E-08

usemtl Sewer_tunnel
f 3/3/1 4/4/2 2/2/2 1/1/1
f 4/3/2 6/4/3 5/2/3 2/1/2
f 6/3/3 8/4/4 7/2/4 5/1/3
f 8/3/4 10/4/5 9/2/5 7/1/4
f 10/3/5 12/4/6 11/2/6 9/1/5
f 12/3/6 14/4/7 13/2/7 11/1/6
f 14/3/7 16/4/8 15/2/8 13/1/7
f 16/3/8 18/4/9 17/2/9 15/1/8
f 18/3/9 20/4/10 19/2/10 17/1/9
f 20/3/10 22/4/11 21/2/11 19/1/10
f 22/3/11 24/4/12 23/2/12 21/1/11
f 24/3/12 26/4/13 25/2/13 23/1/12
f 26/3/13 28/4/14 27/2/14 25/1/13
f 28/3/14 30/4/15 29/2/15 27/1/14
f 30/3/15 32/4/16 31/2/16 29/1/15
f 32/3/16 34/4/17 33/2/17 31/1/16
f 34/3/17 36/4/18 35/2/18 33/1/17
f 36/3/18 38/4/19 37/2/19 35/1/18
f 38/3/19 40/4/20 39/2/20 37/1/19
f 40/3/20 42/4/22 41/2/21 39/1/20
f 42/3/22 44/4/23 43/2/23 41/1/21
f 44/3/23 46/4/24 45/2/24 43/1/23
f 46/3/24 48/4/25 47/2/25 45/1/24
f 48/3/25 50/4/26 49/2/26 47/1/25
f 50/3/26 52/4/27 51/2/27 49/1/26
f 52/3/27 54/4/28 53/2/28 51/1/27
f 54/3/28 56/4/29 55/2/29 53/1/28
f 56/3/29 58/4/30 57/2/30 55/1/29
f 58/3/30 60/4/31 59/2/31 57/1/30
f 60/3/31 3/4/1 1/2/1 59/1/31

